<svg width="6" height="14" viewBox="0 0 6 14" fill="none" xmlns="http://www.w3.org/2000/svg">
<path d="M1.86719 13H1.44531L3.40625 1.625H3.82812L1.86719 13Z" fill="black"/>
<path d="M1.86719 13V14H2.70955L2.85265 13.1699L1.86719 13ZM1.44531 13L0.459848 12.8301L0.258171 14H1.44531V13ZM3.40625 1.625V0.625H2.56389L2.42079 1.45512L3.40625 1.625ZM3.82812 1.625L4.81359 1.79488L5.01527 0.625H3.82812V1.625ZM1.86719 12H1.44531V14H1.86719V12ZM2.43077 13.1699L4.39171 1.79488L2.42079 1.45512L0.459848 12.8301L2.43077 13.1699ZM3.40625 2.625H3.82812V0.625H3.40625V2.625ZM2.84266 1.45512L0.881723 12.8301L2.85265 13.1699L4.81359 1.79488L2.84266 1.45512Z" fill="black"/>
</svg>
