<svg width="12" height="10" viewBox="0 0 12 10" fill="none" xmlns="http://www.w3.org/2000/svg">
<path fill-rule="evenodd" clip-rule="evenodd" d="M9 8C9.55229 8 10 8.44771 10 9C10 9.55229 9.55229 10 9 10H1C0.447715 10 0 9.55229 0 9C0 8.44771 0.447715 8 1 8H9ZM5 4C5.55228 4 6 4.44772 6 5C6 5.55228 5.55228 6 5 6H1C0.447715 6 0 5.55228 0 5C0 4.44772 0.447715 4 1 4H5ZM11 0C11.5523 0 12 0.447715 12 1C12 1.55228 11.5523 2 11 2H1C0.447715 2 0 1.55228 0 1C0 0.447715 0.447715 0 1 0H11Z" fill="black"/>
</svg>
